<svg height="512pt" viewBox="0 -3 512 511" width="512pt" xmlns="http://www.w3.org/2000/svg"><path d="m291.265625 81.691406c4.203125 0 7.613281 3.40625 7.613281 7.609375 0 46.167969 37.558594 83.726563 83.726563 83.726563h45.667969v15.222656h-45.667969c-54.5625 0-98.953125-44.386719-98.953125-98.949219 0-4.203125 3.410156-7.609375 7.613281-7.609375zm0 0" fill="#ffcb63"/><path d="m291.269531 373.464844-182.679687-76.117188h213.125v76.117188zm0 0" fill="#ccc"/><path d="m62.921875 297.347656h228.347656v76.117188h-228.347656zm0 0" fill="#ebebeb"/><path d="m314.101562 292.273438v205.003906c0 4.207031 3.410157 7.613281 7.613282 7.613281s7.609375-3.40625 7.609375-7.613281v-205.003906zm0 0" fill="#ccc"/><path d="m466.328125 291.933594h-15.222656v139.378906l15.222656 20.296875zm0 0" fill="#1990c2"/><path d="m506.792969 490.054688-17.628907-5.875v-52.867188h-38.054687v50.742188c0 3.273437 2.09375 6.183593 5.203125 7.21875l45.667969 15.222656c3.984375 1.332031 8.296875-.824219 9.625-4.8125 1.332031-3.988282-.824219-8.300782-4.8125-9.628906zm0 0" fill="#4f4f4f"/><path d="m390.214844 291.933594h15.222656v139.378906l-15.222656 20.296875zm0 0" fill="#2dade3"/><path d="m349.753906 490.054688 17.625-5.875v-52.867188h38.058594v50.742188c0 3.273437-2.097656 6.183593-5.203125 7.21875l-45.667969 15.222656c-3.988281 1.332031-8.296875-.824219-9.628906-4.8125-1.328125-3.988282.828125-8.300782 4.816406-9.628906zm0 0" fill="#696969"/><path d="m78.144531 190.789062-47.699219 60.890626 17.253907-91.335938h30.445312zm0 0" fill="#ccc"/><path d="m47.699219 251.679688-47.699219-60.890626v-30.445312h47.699219zm0 0" fill="#ebebeb"/><path d="m230.375 190.789062-15.222656 91.335938h45.667968v-91.335938zm0 0" fill="#ffa754"/><path d="m199.929688 190.789062h30.445312v91.335938h-30.445312zm0 0" fill="#ffcb63"/><path d="m139.039062 190.789062-15.226562 91.335938h45.671875v-91.335938zm0 0" fill="#ffa754"/><path d="m108.589844 190.789062h30.449218v91.335938h-30.449218zm0 0" fill="#ffcb63"/><path d="m62.921875 251.679688h258.792969v60.894531h-258.792969zm0 0" fill="#4f4f4f"/><path d="m352.160156 282.125c0 16.816406-13.632812 30.449219-30.445312 30.449219-16.816406 0-30.445313-13.632813-30.445313-30.449219 0-16.8125 13.628907-30.445312 30.445313-30.445312 16.8125 0 30.445312 13.632812 30.445312 30.445312zm0 0" fill="#999"/><path d="m329.324219 282.113281c0 4.203125-3.40625 7.613281-7.609375 7.613281s-7.613282-3.410156-7.613282-7.613281 3.410157-7.609375 7.613282-7.609375 7.609375 3.40625 7.609375 7.609375zm0 0" fill="#4f4f4f"/><path d="m260.820312 282.125c0 16.816406-13.628906 30.449219-30.445312 30.449219-16.8125 0-30.445312-13.632813-30.445312-30.449219 0-16.8125 13.632812-30.445312 30.445312-30.445312 16.816406 0 30.445312 13.632812 30.445312 30.445312zm0 0" fill="#999"/><path d="m237.988281 282.125c0 4.207031-3.410156 7.613281-7.613281 7.613281s-7.609375-3.40625-7.609375-7.613281c0-4.203125 3.40625-7.609375 7.609375-7.609375s7.613281 3.40625 7.613281 7.609375zm0 0" fill="#4f4f4f"/><path d="m169.484375 282.125c0 16.816406-13.632813 30.449219-30.445313 30.449219-16.816406 0-30.449218-13.632813-30.449218-30.449219 0-16.8125 13.632812-30.445312 30.449218-30.445312 16.8125 0 30.445313 13.632812 30.445313 30.445312zm0 0" fill="#999"/><path d="m146.648438 282.125c0 4.207031-3.40625 7.613281-7.609376 7.613281-4.207031 0-7.613281-3.40625-7.613281-7.613281 0-4.203125 3.40625-7.609375 7.613281-7.609375 4.203126 0 7.609376 3.40625 7.609376 7.609375zm0 0" fill="#4f4f4f"/><path d="m428.273438 251.679688v76.117187c25.222656 0 45.667968-20.449219 45.667968-45.671875zm0 0" fill="#1990c2"/><path d="m443.496094 282.125-15.222656-30.445312-45.671876 30.445312c0 25.222656 20.449219 45.671875 45.671876 45.671875 8.40625 0 15.222656-20.449219 15.222656-45.671875zm0 0" fill="#2dade3"/><path d="m453.644531 160.34375h-30.445312l20.296875 121.78125h30.445312v-101.484375c0-11.210937-9.085937-20.296875-20.296875-20.296875zm0 0" fill="#ffa754"/><path d="m423.199219 160.34375h-20.296875c-11.210938 0-20.300782 9.085938-20.300782 20.296875v101.484375h60.894532v-101.484375c0-11.210937-9.089844-20.296875-20.296875-20.296875zm0 0" fill="#ffcb63"/><path d="m481.554688 53.78125v30.445312l-30.445313 30.445313h30.445313c16.816406 0 30.445312-13.628906 30.445312-30.445313 0-16.816406-13.632812-30.445312-30.445312-30.445312zm0 0" fill="#b3b3b3"/><path d="m344.546875 84.226562c0 16.816407 13.628906 30.445313 30.445313 30.445313h30.445312l-30.445312-30.445313v-30.445312c-16.816407 0-30.445313 13.628906-30.445313 30.445312zm0 0" fill="#ccc"/><path d="m428.273438 38.558594v102.5l45.667968-46.683594v-10.148438c0-25.222656-20.445312-45.667968-45.667968-45.667968zm0 0" fill="#ffb4a9"/><path d="m428.273438 38.558594c-25.222657 0-45.671876 20.445312-45.671876 45.667968v10.148438l60.894532 46.683594v-56.832032c0-25.222656-6.816406-45.667968-15.222656-45.667968zm0 0" fill="#ffd9d4"/><path d="m447.257812 94.375c-1.066406-1.597656-2.335937-3.046875-3.761718-4.324219l-15.222656 70.292969c25.222656 0 45.667968-20.449219 45.667968-45.671875v-20.296875zm0 0" fill="#a45e43"/><path d="m443.496094 114.671875v-24.621094c-4.042969-3.617187-9.375-5.824219-15.222656-5.824219-7.917969 0-14.890626 4.03125-18.988282 10.148438h-26.683594v20.296875c0 25.222656 20.449219 45.671875 45.671876 45.671875 8.40625 0 15.222656-20.449219 15.222656-45.671875zm0 0" fill="#c27749"/><path d="m481.554688 122.285156c-4.203126 0-7.613282-3.410156-7.613282-7.613281v-53.28125c0-25.179687-20.484375-45.667969-45.667968-45.667969-25.183594 0-45.667969 20.488282-45.667969 45.667969v53.28125c0 4.203125-3.410157 7.613281-7.613281 7.613281-4.203126 0-7.609376-3.410156-7.609376-7.613281v-53.28125c0-33.574219 27.3125-60.890625 60.890626-60.890625 33.574218 0 60.890624 27.316406 60.890624 60.890625v53.28125c0 4.203125-3.40625 7.613281-7.609374 7.613281zm0 0" fill="#4f4f4f"/><path d="m78.144531 497.277344h-30.445312l-30.445313-153.242188 30.445313-153.246094h30.445312zm0 0" fill="#999"/><path d="m0 190.789062h47.699219v306.488282h-47.699219zm0 0" fill="#b3b3b3"/></svg>